# Blender 5.0.0
# www.blender.org
mtllib ArucoBox.mtl
o ArucoCube
v 0.500000 1.169741 5.096694
v 0.500000 0.169741 5.096694
v 0.500000 1.169741 4.096694
v 0.500000 0.169741 4.096694
v -0.500000 1.169741 5.096694
v -0.500000 0.169741 5.096694
v -0.500000 1.169741 4.096694
v -0.500000 0.169741 4.096694
vn -0.0000 1.0000 -0.0000
vn -0.0000 -0.0000 -1.0000
vn -1.0000 -0.0000 -0.0000
vn -0.0000 -1.0000 -0.0000
vn 1.0000 -0.0000 -0.0000
vn -0.0000 -0.0000 1.0000
vt 0.999445 0.998588
vt 0.000705 0.998588
vt 0.000705 0.002190
vt 0.999445 0.002190
vt 1.000635 0.002880
vt -0.001729 0.002880
vt -0.001726 0.998087
vt 1.000637 0.998087
vt 0.997567 1.002543
vt 0.001935 1.002543
vt 0.001938 -0.001489
vt 0.997570 -0.001489
vt 0.998155 0.997708
vt 0.001533 0.997708
vt 0.001533 0.003424
vt 0.998155 0.003424
vt 0.996167 0.995814
vt 0.003531 0.995814
vt 0.003531 0.005655
vt 0.996167 0.005655
vt 0.996464 0.996245
vt 0.004564 0.998916
vt 0.000743 0.000499
vt 0.998327 0.002607
s 0
usemtl Material.001
f 1/1/1 3/4/1 7/3/1 5/2/1
f 4/5/2 8/8/2 7/7/2 3/6/2
f 8/9/3 6/12/3 5/11/3 7/10/3
f 6/13/4 8/16/4 4/15/4 2/14/4
f 2/17/5 4/20/5 3/19/5 1/18/5
f 6/21/6 2/24/6 1/23/6 5/22/6
